HIERARCHY
ROOT Pelvis
{
	OFFSET 0.000000 0.000000 0.000000
	CHANNELS 6 Xposition Yposition Zposition Xrotation Yrotation Zrotation
	JOINT LeftUpLeg_virtual
	{
		OFFSET 0.000000 0.000000 0.000000
		CHANNELS 3 Xrotation Yrotation Zrotation
		JOINT LeftUpLeg
		{
			OFFSET 18.735201 -5.666702 -4.541200
			CHANNELS 3 Xrotation Yrotation Zrotation
			JOINT LeftLeg
			{
				OFFSET -0.021200 -31.938179 0.493100
				CHANNELS 3 Xrotation Yrotation Zrotation
				JOINT LeftFoot
				{
					OFFSET 0.021200 -31.938179 -4.336299
					CHANNELS 3 Xrotation Yrotation Zrotation
					JOINT LeftToeBase
					{
						OFFSET 0.943001 -26.722000 15.023500
						CHANNELS 3 Xrotation Yrotation Zrotation
						End Site
						{
							OFFSET 0 0 0
						}
					}
				}
			}
		}
	}
	JOINT RightUpLeg_virtual
	{
		OFFSET 0.000000 0.000000 0.000000
		CHANNELS 3 Xrotation Yrotation Zrotation
		JOINT RightUpLeg
		{
			OFFSET -18.735201 -5.666702 -4.541200
			CHANNELS 3 Xrotation Yrotation Zrotation
			JOINT RightLeg
			{
				OFFSET 0.018946 -31.938133 0.493100
				CHANNELS 3 Xrotation Yrotation Zrotation
				JOINT RightFoot
				{
					OFFSET -0.018946 -31.938126 -4.336299
					CHANNELS 3 Xrotation Yrotation Zrotation
					JOINT RightToeBase
					{
						OFFSET -0.943001 -26.722004 15.023500
						CHANNELS 3 Xrotation Yrotation Zrotation
						End Site
						{
							OFFSET 0 0 0
						}
					}
				}
			}
		}
	}
	JOINT Hips_virtual
	{
		OFFSET 0.000000 0.000000 0.000000
		CHANNELS 3 Xrotation Yrotation Zrotation
		JOINT Hips
		{
			OFFSET -0.000000 -0.000000 -0.000000
			CHANNELS 3 Xrotation Yrotation Zrotation
			JOINT Spine
			{
				OFFSET 0.000000 10.199997 -0.299500
				CHANNELS 3 Xrotation Yrotation Zrotation
				JOINT Spine1
				{
					OFFSET 0.000000 11.900002 -1.516600
					CHANNELS 3 Xrotation Yrotation Zrotation
					JOINT Spine2
					{
						OFFSET 0.000000 13.600006 -2.842500
						CHANNELS 3 Xrotation Yrotation Zrotation
						JOINT Neck_virtual
						{
							OFFSET 0.000000 0.000000 0.000000
							CHANNELS 3 Xrotation Yrotation Zrotation
							JOINT Neck
							{
								OFFSET 0.000000 9.624100 -2.890100
								CHANNELS 3 Xrotation Yrotation Zrotation
								JOINT Head
								{
									OFFSET 0.000000 14.068802 -1.351900
									CHANNELS 3 Xrotation Yrotation Zrotation
									End Site
									{
										OFFSET 0 0 0
									}
								}
							}
						}
						JOINT LeftShoulder_virtual
						{
							OFFSET 0.000000 0.000000 0.000000
							CHANNELS 3 Xrotation Yrotation Zrotation
							JOINT LeftShoulder
							{
								OFFSET 15.263000 10.923401 -0.547700
								CHANNELS 3 Xrotation Yrotation Zrotation
								JOINT LeftArm
								{
									OFFSET 25.438599 -2.830597 -13.032500
									CHANNELS 3 Xrotation Yrotation Zrotation
									JOINT LeftForeArm
									{
										OFFSET 29.960503 0.000000 0.000000
										CHANNELS 3 Xrotation Yrotation Zrotation
										JOINT LeftHand
										{
											OFFSET 27.849251 0.000000 0.000000
											CHANNELS 3 Xrotation Yrotation Zrotation
											End Site
											{
												OFFSET 0 0 0
											}
										}
									}
								}
							}
						}
						JOINT RightShoulder_virtual
						{
							OFFSET 0.000000 0.000000 0.000000
							CHANNELS 3 Xrotation Yrotation Zrotation
							JOINT RightShoulder
							{
								OFFSET -15.263000 10.923401 -0.547700
								CHANNELS 3 Xrotation Yrotation Zrotation
								JOINT RightArm
								{
									OFFSET -25.438599 -2.830597 -13.032500
									CHANNELS 3 Xrotation Yrotation Zrotation
									JOINT RightForeArm
									{
										OFFSET -29.960503 0.000000 0.000000
										CHANNELS 3 Xrotation Yrotation Zrotation
										JOINT RightHand
										{
											OFFSET -27.849251 0.000000 0.000000
											CHANNELS 3 Xrotation Yrotation Zrotation
											End Site
											{
												OFFSET 0 0 0
											}
										}
									}
								}
							}
						}
					}
				}
			}
		}
	}
}
MOTION
Frames: 5
Frame Time: 0.03333333
0.481062 18.703747 4.166004 0.000000 0.000000 0.000000 -46.301029 -1.572564 -11.601539 -91.516981 5.980562 10.826566 42.743990 2.570554 -1.828364 -6.298395 3.372845 -6.482053 0.000000 0.000000 0.000000 -35.882187 6.118513 9.618842 -73.909641 -0.503409 -7.524099 35.749340 -5.201431 10.159742 -13.239299 -13.849200 23.788726 0.000000 0.000000 0.000000 -26.278048 -17.812227 0.413550 -73.066700 17.929419 29.875019 0.695471 0.963490 -1.499255 -2.131668 0.977183 -0.314217 0.000000 0.000000 0.000000 3.427647 -0.286622 -0.208905 -1.266899 0.606206 -0.006220 0.000000 0.000000 0.000000 -0.730296 -1.031705 1.468397 -1.202249 -5.878444 0.178818 -12.084197 -20.201458 -68.327505 -91.562395 -88.910697 -97.615288 0.000000 0.000000 0.000000 -0.163903 1.825651 -1.282511 -1.767770 3.332293 6.761160 3.952488 14.005230 58.114617 179.494899 78.057799 -172.490608 0.000000 0.000000 0.000000 
0.481046 18.706387 4.170086 0.000000 0.000000 0.000000 -46.300141 -1.562971 -11.600538 -91.517671 5.983475 10.826840 42.751476 2.561439 -1.826076 -6.292243 3.362136 -6.484611 0.000000 0.000000 0.000000 -35.878806 6.125770 9.623441 -73.905454 -0.503447 -7.521659 35.736253 -5.197028 10.162058 -13.249610 -13.847022 23.794644 0.000000 0.000000 0.000000 -26.274601 -17.804732 0.415478 -73.073899 17.928902 29.879523 0.690855 0.960983 -1.499026 -2.133080 0.975466 -0.313860 0.000000 0.000000 0.000000 3.428829 -0.290802 -0.206671 -1.266444 0.602788 -0.004582 0.000000 0.000000 0.000000 -0.735247 -1.032122 1.467363 -1.207443 -5.878976 0.171498 -12.106393 -20.180750 -68.323666 -91.304009 -88.904071 -97.343494 0.000000 0.000000 0.000000 -0.161632 1.825773 -1.282616 -1.767478 3.337605 6.758508 3.934355 14.000876 58.126774 179.532000 78.053175 -172.527355 0.000000 0.000000 0.000000 
0.481456 18.708771 4.174473 0.000000 0.000000 0.000000 -46.298967 -1.553038 -11.600509 -91.518115 5.987065 10.826418 42.759272 2.552088 -1.823614 -6.285829 3.351091 -6.487052 0.000000 0.000000 0.000000 -35.875142 6.132169 9.627229 -73.901096 -0.503454 -7.519634 35.722753 -5.192713 10.164445 -13.260163 -13.844994 23.800639 0.000000 0.000000 0.000000 -26.270965 -17.797195 0.417621 -73.080586 17.928690 29.885336 0.686690 0.959172 -1.497751 -2.134261 0.974098 -0.312920 0.000000 0.000000 0.000000 3.430180 -0.294398 -0.203452 -1.265809 0.599747 -0.002474 0.000000 0.000000 0.000000 -0.739814 -1.032152 1.466505 -1.212427 -5.878423 0.164601 -12.126971 -20.160217 -68.317949 -90.733736 -88.898191 -96.760565 0.000000 0.000000 0.000000 -0.159157 1.825990 -1.282212 -1.766922 3.342800 6.757845 3.918621 13.997721 58.139943 179.566971 78.046017 -172.561109 0.000000 0.000000 0.000000 
0.482324 18.710899 4.179636 0.000000 0.000000 0.000000 -46.297532 -1.542275 -11.601230 -91.518422 5.991386 10.825351 42.767479 2.542552 -1.820826 -6.279002 3.339680 -6.489101 0.000000 0.000000 0.000000 -35.871146 6.138071 9.630123 -73.896431 -0.503279 -7.518098 35.708888 -5.188409 10.166852 -13.270915 -13.843009 23.806677 0.000000 0.000000 0.000000 -26.267280 -17.789527 0.419984 -73.087402 17.928497 29.892456 0.683390 0.958012 -1.495824 -2.134964 0.973080 -0.311626 0.000000 0.000000 0.000000 3.431873 -0.297521 -0.199464 -1.264952 0.597015 -0.000010 0.000000 0.000000 0.000000 -0.743749 -1.031798 1.465785 -1.217008 -5.876660 0.157992 -12.143436 -20.140589 -68.309596 -89.808443 -88.893942 -95.823688 0.000000 0.000000 0.000000 -0.156549 1.826274 -1.281293 -1.766231 3.347743 6.759193 3.905029 13.995930 58.153351 179.598964 78.037643 -172.591312 0.000000 0.000000 0.000000 
0.483315 18.712944 4.185699 0.000000 0.000000 0.000000 -46.295774 -1.530902 -11.602642 -91.518477 5.996353 10.823648 42.776621 2.532883 -1.817623 -6.271322 3.327895 -6.490574 0.000000 0.000000 0.000000 -35.866799 6.143307 9.632138 -73.891479 -0.502986 -7.517036 35.694903 -5.184129 10.169387 -13.281679 -13.841117 23.812920 0.000000 0.000000 0.000000 -26.263609 -17.781752 0.422415 -73.093993 17.928533 29.899952 0.681111 0.957425 -1.493711 -2.135117 0.972370 -0.310238 0.000000 0.000000 0.000000 3.434101 -0.300318 -0.195009 -1.263813 0.594511 0.002652 0.000000 0.000000 0.000000 -0.746943 -1.031204 1.465052 -1.221119 -5.873967 0.151100 -12.154180 -20.122296 -68.298060 -88.485818 -88.890404 -94.491091 0.000000 0.000000 0.000000 -0.153804 1.826562 -1.279941 -1.765418 3.352214 6.762352 3.893188 13.996231 58.166178 179.627186 78.028935 -172.617486 0.000000 0.000000 0.000000 
